<svg width="121" height="20" viewBox="0 0 121 20" fill="none" xmlns="http://www.w3.org/2000/svg">
<path d="M15.864 2.75944H3.82273L5.25982 0.243842C5.34517 0.091954 5.50773 0 5.67761 0H16.5687C16.7321 0 16.8817 0.0886699 16.963 0.230706L18.6252 3.13465C18.6805 3.23317 18.6805 3.3555 18.6252 3.45402L16.6695 6.87192L18.4561 10L16.8914 12.7397L13.6417 7.05665C13.5702 6.93186 13.5702 6.77668 13.6417 6.65189L15.8648 2.76026L15.864 2.75944ZM3.70812 17.0427L5.26632 19.7693C5.3476 19.9105 5.50123 20 5.6638 20H16.5517C16.7248 20 16.8841 19.908 16.9719 19.7562L18.4098 17.2406H6.5701L8.68916 13.5361C8.76069 13.4113 8.76069 13.2562 8.68916 13.1314L5.3346 7.26765L3.77315 10.0008L5.6638 13.3062L3.70812 16.7274C3.65285 16.8259 3.65285 16.9483 3.70812 17.0435V17.0427Z" fill="#7E54F1"/>
<path d="M8 16.3333H18.4474C18.679 16.3333 18.8904 16.2085 19.0082 16.0039L22.1962 10.4218C22.3791 10.1022 22.3791 9.70697 22.1962 9.38736L19.1188 4L17.5411 6.76146L19.3342 9.90498L18.2125 11.8719L17.2996 13.4667L17.2411 13.5686H9.57771L8 16.3333Z" fill="#7E54F1"/>
<path d="M0.135233 10.5303L3.25261 16L4.8081 13.2713L2.9537 10.0188L4.95555 6.50907L5.01966 6.39866H12.7778L14.3333 3.66667H3.83121C3.60282 3.66667 3.39125 3.79007 3.27826 3.99223L0.135233 9.50817C-0.0450778 9.824 -0.0450778 10.2145 0.135233 10.5303Z" fill="#7E54F1"/>
<path d="M79.4285 3.02449C81.0438 3.02449 82.3492 3.53847 83.3445 4.56645C84.3399 5.5781 84.8375 6.99768 84.8375 8.82519V16.7797H81.411V9.29022C81.411 8.2133 81.1417 7.38929 80.6033 6.8182C80.0648 6.23078 79.3306 5.93708 78.4005 5.93708C77.4541 5.93708 76.7035 6.23078 76.1487 6.8182C75.6103 7.38929 75.341 8.2133 75.341 9.29022V16.7797H71.9145V3.22029H75.341V4.9091C75.7979 4.32169 76.3772 3.86481 77.0788 3.53847C77.7968 3.19582 78.58 3.02449 79.4285 3.02449Z" fill="#4B575C"/>
<path d="M54.935 9.95105C54.935 8.58042 55.2042 7.3648 55.7427 6.30419C56.2974 5.24359 57.0399 4.42774 57.9699 3.85664C58.9163 3.28555 59.9688 3 61.1273 3C62.1389 3 63.02 3.20396 63.7706 3.61189C64.5375 4.01981 65.1494 4.5338 65.6063 5.15385V3.22028H69.0573V16.7797H65.6063V14.7972C65.1657 15.4336 64.5538 15.9639 63.7706 16.3881C63.0037 16.796 62.1144 17 61.1028 17C59.9606 17 58.9163 16.7063 57.9699 16.1189C57.0399 15.5315 56.2974 14.7075 55.7427 13.6469C55.2042 12.5699 54.935 11.338 54.935 9.95105ZM65.6063 10C65.6063 9.16783 65.4431 8.45804 65.1168 7.87063C64.7904 7.2669 64.3499 6.81002 63.7951 6.5C63.2403 6.17366 62.6447 6.01049 62.0084 6.01049C61.372 6.01049 60.7846 6.1655 60.2461 6.47552C59.7077 6.78555 59.2671 7.24242 58.9245 7.84615C58.5981 8.43357 58.435 9.1352 58.435 9.95105C58.435 10.7669 58.5981 11.4848 58.9245 12.1049C59.2671 12.7086 59.7077 13.1737 60.2461 13.5C60.8009 13.8263 61.3883 13.9895 62.0084 13.9895C62.6447 13.9895 63.2403 13.8345 63.7951 13.5245C64.3499 13.1981 64.7904 12.7413 65.1168 12.1538C65.4431 11.5501 65.6063 10.8322 65.6063 10Z" fill="#4B575C"/>
<path d="M40.7009 10C40.7009 8.59674 40.9865 7.37296 41.5576 6.32867C42.1287 5.26806 42.92 4.45221 43.9317 3.88112C44.9433 3.29371 46.1018 3 47.4072 3C49.0879 3 50.4748 3.42424 51.568 4.27273C52.6776 5.1049 53.42 6.27972 53.7953 7.7972H50.0995C49.9037 7.20979 49.5692 6.75291 49.096 6.42657C48.6391 6.08392 48.068 5.91259 47.3827 5.91259C46.4037 5.91259 45.6287 6.27156 45.0576 6.98951C44.4865 7.69114 44.2009 8.69464 44.2009 10C44.2009 11.289 44.4865 12.2925 45.0576 13.0105C45.6287 13.7121 46.4037 14.0629 47.3827 14.0629C48.7697 14.0629 49.6753 13.4429 50.0995 12.2028H53.7953C53.42 13.6713 52.6776 14.838 51.568 15.7028C50.4585 16.5676 49.0715 17 47.4072 17C46.1018 17 44.9433 16.7144 43.9317 16.1434C42.92 15.5559 42.1287 14.7401 41.5576 13.6958C40.9865 12.6352 40.7009 11.4033 40.7009 10Z" fill="#4B575C"/>
<path d="M33.9231 17C32.8135 17 31.8182 16.8042 30.9371 16.4126C30.0559 16.0047 29.3543 15.458 28.8322 14.7727C28.3263 14.0874 28.049 13.3287 28 12.4965H31.451C31.5163 13.0186 31.7692 13.451 32.2098 13.7937C32.6667 14.1364 33.2296 14.3077 33.8986 14.3077C34.5513 14.3077 35.0571 14.1772 35.4161 13.9161C35.7914 13.655 35.979 13.3205 35.979 12.9126C35.979 12.472 35.7506 12.1457 35.2937 11.9336C34.8531 11.7051 34.1434 11.4604 33.1643 11.1993C32.1527 10.9545 31.3205 10.7016 30.6678 10.4406C30.0315 10.1795 29.4767 9.77972 29.0035 9.24126C28.5466 8.7028 28.3182 7.97669 28.3182 7.06294C28.3182 6.31235 28.5303 5.62704 28.9545 5.00699C29.3951 4.38695 30.0152 3.89744 30.8147 3.53846C31.6305 3.17949 32.5851 3 33.6783 3C35.2937 3 36.5827 3.40793 37.5455 4.22378C38.5082 5.02331 39.0385 6.10839 39.1364 7.47902H35.8566C35.8077 6.94056 35.5793 6.51632 35.1713 6.20629C34.7797 5.87995 34.2494 5.71678 33.5804 5.71678C32.9604 5.71678 32.479 5.831 32.1364 6.05944C31.81 6.28788 31.6469 6.60606 31.6469 7.01399C31.6469 7.47086 31.8753 7.82168 32.3322 8.06643C32.789 8.29487 33.4988 8.53147 34.4615 8.77622C35.4406 9.02098 36.2483 9.27389 36.8846 9.53496C37.521 9.79604 38.0676 10.204 38.5245 10.7587C38.9977 11.2972 39.2424 12.0152 39.2587 12.9126C39.2587 13.6958 39.0385 14.3974 38.5979 15.0175C38.1737 15.6375 37.5536 16.127 36.7378 16.486C35.9382 16.8287 35 17 33.9231 17Z" fill="#4B575C"/>
</svg>
