<svg width="192" height="160" viewBox="0 0 192 160" fill="none" xmlns="http://www.w3.org/2000/svg">
<g clip-path="url(#clip0_362_18607)">
<path fill-rule="evenodd" clipRule="evenodd" d="M48 16C43.5817 16 40 19.5817 40 24V60.4679C40 68.3607 36.1411 75.577 29.9489 80C36.1411 84.423 40 91.6393 40 99.5322L40 136C40 140.418 43.5817 144 48 144H72V160H48C34.7452 160 24 149.255 24 136V99.5322C24 96.0887 21.7966 93.0316 18.5298 91.9427L5.47018 87.5895C2.20344 86.5006 0 83.4434 0 80C0 76.5566 2.20344 73.4994 5.47018 72.4105L18.5298 68.0573C21.7966 66.9684 24 63.9113 24 60.4679V24C24 10.7452 34.7452 0 48 0L72 0V16H48Z" fill="url(#paint0_linear_362_18607)"/>
<path fill-rule="evenodd" clipRule="evenodd" d="M144 144C148.418 144 152 140.418 152 136L152 99.5321C152 91.6393 155.859 84.423 162.051 80C155.859 75.577 152 68.3607 152 60.4678L152 24C152 19.5817 148.418 16 144 16L120 16L120 -6.29444e-06L144 -4.19629e-06C157.255 -3.03752e-06 168 10.7452 168 24L168 60.4678C168 63.9113 170.203 66.9684 173.47 68.0573L186.53 72.4105C189.797 73.4994 192 76.5566 192 80C192 83.4434 189.797 86.5006 186.53 87.5895L173.47 91.9427C170.203 93.0316 168 96.0887 168 99.5321L168 136C168 149.255 157.255 160 144 160L120 160L120 144L144 144Z" fill="url(#paint1_linear_362_18607)"/>
<path fill-rule="evenodd" clipRule="evenodd" d="M88 160L88 -1.39876e-06L104 0L104 160L88 160Z" fill="url(#paint2_linear_362_18607)"/>
</g>
<defs>
<linearGradient id="paint0_linear_362_18607" x1="192" y1="160" x2="-1.19739e-05" y2="1.43687e-05" gradientUnits="userSpaceOnUse">
<stop stop-color="#FFB71C"/>
<stop offset="1" stop-color="#FFEABC"/>
</linearGradient>
<linearGradient id="paint1_linear_362_18607" x1="192" y1="160" x2="1.06006e-06" y2="2.6062e-06" gradientUnits="userSpaceOnUse">
<stop stop-color="#FFB71C"/>
<stop offset="1" stop-color="#FFEABC"/>
</linearGradient>
<linearGradient id="paint2_linear_362_18607" x1="-1" y1="-3.56999e-05" x2="96.4206" y2="-44.9559" gradientUnits="userSpaceOnUse">
<stop stop-color="#FFB71C"/>
<stop offset="1" stop-color="#FFEABC"/>
</linearGradient>
<clipPath id="clip0_362_18607">
<rect width="192" height="160" fill="white"/>
</clipPath>
</defs>
</svg>
